<svg width="42" height="42" viewBox="0 0 42 42" fill="none" xmlns="http://www.w3.org/2000/svg">
<path d="M18.3751 28.0612L12.9571 22.645C12.4649 22.1526 11.7972 21.8758 11.1009 21.8757C10.4047 21.8755 9.73689 22.1519 9.24444 22.6441C8.752 23.1363 8.47526 23.804 8.4751 24.5003C8.47493 25.1965 8.75136 25.8643 9.24357 26.3567L19.1433 36.2565C19.3871 36.5004 19.6765 36.6939 19.9951 36.826C20.3137 36.958 20.6552 37.0259 21.0001 37.0259C21.3449 37.0259 21.6864 36.958 22.005 36.826C22.3236 36.6939 22.613 36.5004 22.8568 36.2565L32.7566 26.3585C33.0004 26.1147 33.1938 25.8252 33.3258 25.5066C33.4577 25.188 33.5257 24.8466 33.5257 24.5018C33.5257 24.1569 33.4577 23.8155 33.3258 23.4969C33.1938 23.1783 33.0004 22.8888 32.7566 22.645C32.5127 22.4012 32.2233 22.2077 31.9047 22.0758C31.5861 21.9438 31.2447 21.8759 30.8998 21.8759C30.555 21.8759 30.2135 21.9438 29.895 22.0758C29.5764 22.2077 29.2869 22.4012 29.0431 22.645L23.6251 28.0612V7.875C23.6251 7.17881 23.3485 6.51113 22.8562 6.01884C22.3639 5.52656 21.6963 5.25 21.0001 5.25C20.3039 5.25 19.6362 5.52656 19.1439 6.01884C18.6516 6.51113 18.3751 7.17881 18.3751 7.875V28.0612Z" fill="#417ED9"/>
</svg>
