<svg width="25" height="25" viewBox="0 0 25 25" fill="none" xmlns="http://www.w3.org/2000/svg">
<path fill-rule="evenodd" clip-rule="evenodd" d="M10.4271 3.5065C10.4271 3.24128 10.3218 2.98693 10.1342 2.79939C9.94669 2.61186 9.69234 2.5065 9.42712 2.5065C9.16191 2.5065 8.90755 2.61186 8.72002 2.79939C8.53248 2.98693 8.42712 3.24128 8.42712 3.5065V5.5065C8.42712 5.77172 8.53248 6.02607 8.72002 6.21361C8.90755 6.40114 9.16191 6.5065 9.42712 6.5065C9.69234 6.5065 9.94669 6.40114 10.1342 6.21361C10.3218 6.02607 10.4271 5.77172 10.4271 5.5065V3.5065ZM5.89112 4.5565C5.79888 4.46099 5.68853 4.38481 5.56653 4.3324C5.44452 4.27999 5.3133 4.2524 5.18053 4.25125C5.04775 4.2501 4.91607 4.2754 4.79317 4.32568C4.67027 4.37596 4.55862 4.45021 4.46473 4.5441C4.37084 4.638 4.29658 4.74965 4.2463 4.87255C4.19602 4.99544 4.17072 5.12712 4.17187 5.2599C4.17303 5.39268 4.20061 5.5239 4.25302 5.6459C4.30543 5.76791 4.38161 5.87825 4.47712 5.9705L5.89112 7.3865C5.9841 7.47948 6.09448 7.55323 6.21596 7.60355C6.33744 7.65386 6.46764 7.67976 6.59912 7.67976C6.73061 7.67976 6.86081 7.65386 6.98229 7.60355C7.10377 7.55323 7.21415 7.47948 7.30712 7.3865C7.4001 7.29352 7.47385 7.18315 7.52417 7.06167C7.57449 6.94019 7.60039 6.80999 7.60039 6.6785C7.60039 6.54701 7.57449 6.41681 7.52417 6.29533C7.47385 6.17385 7.4001 6.06348 7.30712 5.9705L5.89112 4.5565ZM10.2181 8.7165C9.24012 8.3905 8.31112 9.3195 8.63612 10.2965L12.1691 20.8945C12.5261 21.9665 14.0091 22.0525 14.4881 21.0285L16.5431 16.6225L20.9491 14.5675C21.9731 14.0895 21.8871 12.6055 20.8151 12.2485L10.2181 8.7165ZM14.3771 4.5565C14.5646 4.74403 14.6699 4.99834 14.6699 5.2635C14.6699 5.52866 14.5646 5.78297 14.3771 5.9705L12.9631 7.3865C12.8702 7.47941 12.7599 7.55311 12.6385 7.60339C12.5171 7.65368 12.387 7.67956 12.2556 7.67956C12.1242 7.67956 11.9941 7.65368 11.8727 7.60339C11.7513 7.55311 11.641 7.47941 11.5481 7.3865C11.4552 7.29359 11.3815 7.18329 11.3312 7.0619C11.2809 6.9405 11.2551 6.81039 11.2551 6.679C11.2551 6.54761 11.2809 6.4175 11.3312 6.2961C11.3815 6.17471 11.4552 6.06441 11.5481 5.9715L12.9631 4.5575C13.1507 4.37003 13.405 4.26471 13.6701 4.26471C13.9353 4.26471 14.1896 4.36903 14.3771 4.5565ZM2.42712 9.5065C2.42712 9.24128 2.53248 8.98693 2.72002 8.79939C2.90755 8.61186 3.16191 8.5065 3.42712 8.5065H5.42712C5.69234 8.5065 5.94669 8.61186 6.13423 8.79939C6.32177 8.98693 6.42712 9.24128 6.42712 9.5065C6.42712 9.77172 6.32177 10.0261 6.13423 10.2136C5.94669 10.4011 5.69234 10.5065 5.42712 10.5065H3.42712C3.16191 10.5065 2.90755 10.4011 2.72002 10.2136C2.53248 10.0261 2.42712 9.77172 2.42712 9.5065ZM7.30612 13.0425C7.39903 12.9496 7.47273 12.8393 7.52302 12.7179C7.5733 12.5965 7.59918 12.4664 7.59918 12.335C7.59918 12.2036 7.5733 12.0735 7.52302 11.9521C7.47273 11.8307 7.39903 11.7204 7.30612 11.6275C7.21321 11.5346 7.10291 11.4609 6.98152 11.4106C6.86013 11.3603 6.73002 11.3344 6.59862 11.3344C6.46723 11.3344 6.33712 11.3603 6.21573 11.4106C6.09433 11.4609 5.98403 11.5346 5.89112 11.6275L4.47712 13.0425C4.38161 13.1347 4.30543 13.2451 4.25302 13.3671C4.20061 13.4891 4.17303 13.6203 4.17187 13.7531C4.17072 13.8859 4.19602 14.0176 4.2463 14.1405C4.29658 14.2633 4.37084 14.375 4.46473 14.4689C4.55862 14.5628 4.67027 14.637 4.79317 14.6873C4.91607 14.7376 5.04775 14.7629 5.18053 14.7617C5.3133 14.7606 5.44452 14.733 5.56653 14.6806C5.68853 14.6282 5.79888 14.552 5.89112 14.4565L7.30612 13.0425Z" fill="white"/>
</svg>
