<svg width="47" height="47" viewBox="0 0 47 47" fill="none" xmlns="http://www.w3.org/2000/svg">
<path d="M41.6185 0H4.99422C2.23699 0 0 2.23699 0 4.99422V41.6185C0 44.3757 2.23699 46.6127 4.99422 46.6127H41.6185C44.3757 46.6127 46.6127 44.3757 46.6127 41.6185V4.99422C46.6127 2.23699 44.3757 0 41.6185 0ZM28.852 39.9226C27.978 40.0786 27.6555 39.5376 27.6555 39.0902C27.6555 38.5283 27.6763 35.6567 27.6763 33.3364C27.6763 31.7133 27.1353 30.6832 26.5006 30.1422C30.3503 29.7156 34.4081 29.185 34.4081 22.5364C34.4081 20.6428 33.7318 19.696 32.6289 18.4786C32.8058 18.0312 33.3989 16.1896 32.452 13.7965C31.0058 13.3491 27.6971 15.659 27.6971 15.659C26.3237 15.274 24.8358 15.0763 23.3688 15.0763C21.9017 15.0763 20.4139 15.274 19.0405 15.659C19.0405 15.659 15.7318 13.3491 14.2856 13.7965C13.3387 16.1792 13.9214 18.0208 14.1087 18.4786C13.0058 19.696 12.4856 20.6428 12.4856 22.5364C12.4856 29.1538 16.3665 29.7156 20.2162 30.1422C19.7168 30.5896 19.2694 31.3595 19.1133 32.4624C18.1249 32.9098 15.5965 33.6798 14.0879 31.0162C13.141 29.3723 11.4347 29.237 11.4347 29.237C9.74914 29.2162 11.3202 30.2983 11.3202 30.2983C12.4439 30.8185 13.2347 32.8162 13.2347 32.8162C14.2439 35.9064 19.0717 34.8659 19.0717 34.8659C19.0717 36.3121 19.0925 38.6636 19.0925 39.0902C19.0925 39.5376 18.7804 40.0786 17.896 39.9226C11.0289 37.6231 6.22197 31.089 6.22197 23.452C6.22197 13.9006 13.526 6.64856 23.0775 6.64856C32.6289 6.64856 40.37 13.9006 40.37 23.452C40.3804 31.089 35.7191 37.6335 28.852 39.9226ZM18.6451 33.5653C18.4474 33.6069 18.2601 33.5237 18.2393 33.3884C18.2185 33.2324 18.3538 33.0971 18.5515 33.0555C18.7491 33.0347 18.9364 33.1179 18.9572 33.2532C18.9884 33.3884 18.8532 33.5237 18.6451 33.5653ZM17.6567 33.4717C17.6567 33.6069 17.5006 33.7214 17.2925 33.7214C17.0636 33.7422 16.9075 33.6278 16.9075 33.4717C16.9075 33.3364 17.0636 33.222 17.2717 33.222C17.4694 33.2012 17.6567 33.3156 17.6567 33.4717ZM16.2312 33.3572C16.1896 33.4925 15.9815 33.5549 15.8046 33.4925C15.6069 33.4509 15.4717 33.2948 15.5133 33.1595C15.5549 33.0243 15.763 32.9619 15.9399 33.0035C16.148 33.0659 16.2832 33.222 16.2312 33.3572ZM14.9514 32.7954C14.8578 32.9098 14.6601 32.889 14.504 32.733C14.348 32.5977 14.3064 32.4 14.4104 32.3064C14.504 32.1919 14.7017 32.2127 14.8578 32.3688C14.9931 32.5041 15.0451 32.7122 14.9514 32.7954ZM14.0046 31.8486C13.911 31.911 13.7341 31.8486 13.6197 31.6925C13.5052 31.5364 13.5052 31.3595 13.6197 31.2867C13.7341 31.1931 13.911 31.2659 14.0046 31.422C14.1191 31.578 14.1191 31.7653 14.0046 31.8486ZM13.3283 30.8393C13.2347 30.933 13.0786 30.8809 12.9642 30.7769C12.8497 30.6416 12.8289 30.4856 12.9225 30.4127C13.0162 30.3191 13.1723 30.3711 13.2867 30.4752C13.4012 30.6104 13.422 30.7665 13.3283 30.8393ZM12.6312 30.0694C12.5896 30.163 12.4543 30.1838 12.3399 30.111C12.2046 30.0486 12.1422 29.9341 12.1838 29.8405C12.2254 29.778 12.3399 29.7468 12.4751 29.7988C12.6104 29.8717 12.6728 29.9861 12.6312 30.0694Z" fill="#417ED9"/>
</svg>
