<svg width="48" height="47" viewBox="0 0 48 47" fill="none" xmlns="http://www.w3.org/2000/svg">
<path d="M42.0463 0C43.4199 0 44.7372 0.545663 45.7085 1.51695C46.6798 2.48824 47.2255 3.80559 47.2255 5.17919V41.4335C47.2255 42.8071 46.6798 44.1245 45.7085 45.0958C44.7372 46.0671 43.4199 46.6127 42.0463 46.6127H5.79192C4.41832 46.6127 3.10097 46.0671 2.12968 45.0958C1.1584 44.1245 0.612732 42.8071 0.612732 41.4335V5.17919C0.612732 3.80559 1.1584 2.48824 2.12968 1.51695C3.10097 0.545663 4.41832 0 5.79192 0H42.0463ZM40.7515 40.1387V26.4139C40.7515 24.1749 39.862 22.0276 38.2788 20.4444C36.6956 18.8612 34.5484 17.9718 32.3094 17.9718C30.1082 17.9718 27.5445 19.3184 26.3015 21.3383V18.4638H19.0766V40.1387H26.3015V27.372C26.3015 25.378 27.9071 23.7466 29.9011 23.7466C30.8626 23.7466 31.7847 24.1286 32.4646 24.8085C33.1445 25.4884 33.5265 26.4105 33.5265 27.372V40.1387H40.7515ZM10.6604 14.3982C11.8142 14.3982 12.9208 13.9398 13.7366 13.1239C14.5525 12.308 15.0109 11.2015 15.0109 10.0476C15.0109 7.63931 13.0687 5.67122 10.6604 5.67122C9.49967 5.67122 8.38651 6.1323 7.56577 6.95304C6.74503 7.77378 6.28395 8.88694 6.28395 10.0476C6.28395 12.456 8.25204 14.3982 10.6604 14.3982ZM14.2599 40.1387V18.4638H7.08672V40.1387H14.2599Z" fill="#417ED9"/>
</svg>
