<svg width="32" height="32" viewBox="0 0 32 32" fill="none" xmlns="http://www.w3.org/2000/svg">
<path d="M15.9999 16C14.5333 16 13.2777 15.4778 12.2333 14.4333C11.1888 13.3889 10.6666 12.1333 10.6666 10.6667C10.6666 9.2 11.1888 7.94445 12.2333 6.9C13.2777 5.85556 14.5333 5.33334 15.9999 5.33334C17.4666 5.33334 18.7221 5.85556 19.7666 6.9C20.811 7.94445 21.3333 9.2 21.3333 10.6667C21.3333 12.1333 20.811 13.3889 19.7666 14.4333C18.7221 15.4778 17.4666 16 15.9999 16ZM5.33325 26.6667V22.9333C5.33325 22.1778 5.52792 21.4836 5.91725 20.8507C6.30659 20.2178 6.82303 19.7342 7.46659 19.4C8.84436 18.7111 10.2444 18.1947 11.6666 17.8507C13.0888 17.5067 14.5333 17.3342 15.9999 17.3333C17.4666 17.3324 18.911 17.5049 20.3333 17.8507C21.7555 18.1964 23.1555 18.7129 24.5333 19.4C25.1777 19.7333 25.6946 20.2169 26.0839 20.8507C26.4733 21.4844 26.6675 22.1787 26.6666 22.9333V26.6667H5.33325Z" fill="white"/>
</svg>
