<svg width="32" height="32" viewBox="0 0 32 32" fill="none" xmlns="http://www.w3.org/2000/svg">
<path d="M8.00008 26.6667H24.0001C24.7334 26.6667 25.3334 27.2667 25.3334 28C25.3334 28.7333 24.7334 29.3333 24.0001 29.3333H8.00008C7.26675 29.3333 6.66675 28.7333 6.66675 28C6.66675 27.2667 7.26675 26.6667 8.00008 26.6667ZM16.0001 9.33332C14.5334 9.33332 13.3334 10.5333 13.3334 12C13.3334 13.4667 14.5334 14.6667 16.0001 14.6667C17.4667 14.6667 18.6667 13.4667 18.6667 12C18.6667 10.5333 17.4667 9.33332 16.0001 9.33332ZM16.0001 2.66666C20.3601 2.66666 25.3334 5.94666 25.3334 12.2C25.3334 16.1733 22.4934 20.36 16.8134 24.72C16.3334 25.0933 15.6667 25.0933 15.1867 24.72C9.50675 20.3467 6.66675 16.1733 6.66675 12.2C6.66675 5.94666 11.6401 2.66666 16.0001 2.66666Z" fill="white"/>
</svg>
