<svg width="78" height="100" viewBox="0 0 78 100" fill="none" xmlns="http://www.w3.org/2000/svg">
<path fill-rule="evenodd" clip-rule="evenodd" d="M48.3871 90.6229L9.67742 74.9987V25.0013L48.3871 9.37712V90.6229ZM3.96774 82.8483C2.79255 82.3734 1.78871 81.5723 1.08265 80.5458C0.376592 79.5193 -0.000106207 78.3133 2.24616e-08 77.0798V22.9202C-0.000106207 21.6867 0.376592 20.4807 1.08265 19.4542C1.78871 18.4277 2.79255 17.6266 3.96774 17.1517L44.6645 0.721319C46.1354 0.127559 47.7348 -0.105191 49.3208 0.0437381C50.9068 0.192667 52.4303 0.718665 53.7561 1.57503C55.0818 2.43139 56.1687 3.59161 56.9203 4.95268C57.6719 6.31375 58.065 7.83355 58.0645 9.37712V12.502H66.129C72.3613 12.502 77.4193 17.3955 77.4193 23.4389V76.5611C77.4193 79.4618 76.2298 82.2436 74.1125 84.2947C71.9951 86.3458 69.1234 87.498 66.129 87.498H58.0645V90.6229C58.065 92.1665 57.6719 93.6862 56.9203 95.0473C56.1687 96.4084 55.0818 97.5686 53.7561 98.425C52.4303 99.2813 50.9068 99.8073 49.3208 99.9563C47.7348 100.105 46.1354 99.8724 44.6645 99.2787L3.96774 82.8483ZM58.0645 78.1235H66.129C66.5568 78.1235 66.967 77.9589 67.2695 77.6659C67.572 77.3729 67.7419 76.9755 67.7419 76.5611V23.4389C67.7419 23.0245 67.572 22.6271 67.2695 22.3341C66.967 22.0411 66.5568 21.8765 66.129 21.8765H58.0645V78.1235Z" fill="#4190D9"/>
</svg>
