<svg width="96" height="96" viewBox="0 0 96 96" fill="none" xmlns="http://www.w3.org/2000/svg">
<path d="M48 28C50.2091 28 52 26.2092 52 24C52 21.7909 50.2091 20 48 20C45.7909 20 44 21.7909 44 24C44 26.2092 45.7909 28 48 28Z" fill="#4190D9"/>
<path d="M24 68H72V76H24V68ZM40 47.32L51.168 58.496L66.896 42.756L72 48V32H56L61.24 37.1L51.164 47.176L40 36L24 52L29.656 57.656L40 47.32Z" fill="#4190D9"/>
<path d="M75.2084 11.875H62.1538C61.7651 11.2897 61.3422 10.728 60.8871 10.1927L60.8475 10.1452C57.9392 6.75785 53.8475 4.6086 49.4079 4.13644C48.1473 3.89642 46.8527 3.89642 45.5921 4.13644C41.1526 4.6086 37.0608 6.75785 34.1525 10.1452L34.1129 10.1927C33.658 10.7267 33.2351 11.2871 32.8463 11.871L19.7917 11.875C16.6432 11.8781 13.6246 13.1302 11.3983 15.3566C9.17195 17.5829 7.91983 20.6015 7.91669 23.75V79.1666C7.91983 82.3151 9.17195 85.3337 11.3983 87.5601C13.6246 89.7864 16.6432 91.0385 19.7917 91.0416H75.2084C78.3568 91.0385 81.3755 89.7864 83.6018 87.5601C85.8281 85.3337 87.0802 82.3151 87.0834 79.1666V23.75C87.0802 20.6015 85.8281 17.5829 83.6018 15.3566C81.3755 13.1302 78.3568 11.8781 75.2084 11.875ZM79.1667 79.1666C79.1667 80.2165 78.7496 81.2233 78.0073 81.9656C77.265 82.7079 76.2582 83.125 75.2084 83.125H19.7917C18.7422 83.1239 17.736 82.7066 16.9939 81.9644C16.2518 81.2223 15.8344 80.2161 15.8334 79.1666V23.75C15.8344 22.7005 16.2518 21.6943 16.9939 20.9522C17.736 20.2101 18.7422 19.7927 19.7917 19.7916H37.8021C38.2564 17.5546 39.47 15.5434 41.2374 14.0988C43.0048 12.6542 45.2173 11.8651 47.5 11.8651C49.7827 11.8651 51.9952 12.6542 53.7626 14.0988C55.53 15.5434 56.7437 17.5546 57.1979 19.7916H75.2084C76.2578 19.7927 77.2641 20.2101 78.0062 20.9522C78.7483 21.6943 79.1656 22.7005 79.1667 23.75V79.1666Z" fill="#4190D9"/>
</svg>
