<svg width="65" height="64" viewBox="0 0 65 64" fill="none" xmlns="http://www.w3.org/2000/svg">
<g clip-path="url(#clip0_144_550)">
<path d="M20.8621 0H27.7368V2.87467H23.7368V5.74933H27.7368V8.624H20.8621V0ZM29.1101 0H35.9875V2.50133H31.9875V3H35.9875V8.74934H29.1101V6.12533H33.1101V5.624H29.1101V0ZM37.3635 0H44.2355V2.50133H40.2355V3H44.2355V8.74934H37.3635V6.12533H41.3635V5.624H37.3635V0Z" fill="#426798"/>
<path fill-rule="evenodd" clip-rule="evenodd" d="M32.8328 64.0001L14.3155 58.8587L8.85681 12.5787H56.8568L51.4008 58.8534L32.8328 64.0001ZM19.6488 33.5281L20.1581 39.2027H39.8301L39.1715 46.5627L32.8408 48.2747H32.8355L26.5155 46.5681L26.1101 42.0427H20.4115L21.2061 50.9547L32.8328 54.1814L44.4781 50.9547L45.8968 35.0507L46.0355 33.5281L47.0595 22.0374H18.6275L19.1448 27.7147H40.8408L40.3235 33.5281H19.6488Z" fill="#426798"/>
</g>
<defs>
<clipPath id="clip0_144_550">
<rect width="64" height="64" fill="white" transform="translate(0.856812)"/>
</clipPath>
</defs>
</svg>
