<svg width="32" height="32" viewBox="0 0 32 32" fill="none" xmlns="http://www.w3.org/2000/svg">
<path d="M11.7327 11.7335H14.1327C14.266 11.7335 14.3993 11.6002 14.3993 11.4669V9.46688C14.3993 9.33354 14.266 9.20021 14.1327 9.20021H11.7327C11.5993 9.20021 11.466 9.33354 11.466 9.46688V11.6002C11.466 11.6002 11.5993 11.7335 11.7327 11.7335ZM14.9327 14.8002H17.3327C17.466 14.8002 17.5993 14.6669 17.5993 14.5335V12.4002C17.5993 12.2669 17.466 12.1335 17.3327 12.1335H14.9327C14.7993 12.1335 14.666 12.2669 14.666 12.4002V14.5335C14.666 14.6669 14.7993 14.8002 14.9327 14.8002ZM14.9327 11.7335H17.3327C17.466 11.7335 17.5993 11.6002 17.5993 11.4669V9.46688L17.3327 9.20021H14.9327C14.7993 9.20021 14.666 9.33354 14.666 9.46688V11.6002C14.666 11.6002 14.7993 11.7335 14.9327 11.7335ZM18.266 14.8002H20.666C20.7993 14.8002 20.9327 14.6669 20.9327 14.5335V12.4002C20.9327 12.2669 20.7993 12.1335 20.666 12.1335H18.266C18.1327 12.1335 17.9993 12.2669 17.9993 12.4002V14.5335C17.9993 14.6669 18.1327 14.8002 18.266 14.8002ZM14.9327 8.66688H17.3327C17.466 8.66688 17.5993 8.53355 17.5993 8.40021V6.40021C17.5993 6.26688 17.466 6.13354 17.3327 6.13354H14.9327C14.7993 6.13354 14.666 6.26688 14.666 6.40021V8.53355C14.666 8.66688 14.7993 8.66688 14.9327 8.66688ZM5.06602 14.8002H7.46602C7.59935 14.8002 7.73268 14.6669 7.73268 14.5335V12.4002C7.73268 12.2669 7.59935 12.1335 7.46602 12.1335H5.06602C4.93268 12.1335 4.79935 12.2669 4.79935 12.4002V14.5335L5.06602 14.8002ZM29.066 13.4669C28.3993 13.0669 27.5993 12.8002 26.9327 12.9335C26.5327 12.9335 26.1327 12.9335 25.866 13.0669C25.5993 11.8669 24.9327 10.8002 23.9993 10.2669L23.5993 10.0002L23.3327 10.4002C22.9327 10.6669 22.666 11.2002 22.5327 11.8669C22.266 12.9335 22.3993 14.0002 22.9327 14.8002C22.266 15.0669 21.5993 15.2002 20.9327 15.3335H3.46602C3.06602 15.3335 2.66602 15.7335 2.66602 16.1335C2.66602 17.7335 2.93268 19.2002 3.46602 20.6669C3.99935 22.1335 4.93268 23.3335 6.13268 24.1335C7.99935 25.0669 9.99935 25.4669 11.9993 25.3335C13.066 25.3335 14.1327 25.2002 15.1993 25.0669C16.666 24.8002 18.1327 24.2669 19.466 23.4669C20.5327 22.8002 21.466 22.0002 22.3993 21.0669C23.5993 19.6002 24.5327 18.0002 25.1993 16.1335H25.466C26.5327 16.1335 27.5993 15.7335 28.3993 15.0669C28.7993 14.8002 29.066 14.4002 29.1993 13.8669L29.3327 13.6002L29.066 13.4669ZM8.39935 14.8002H10.666C10.7993 14.8002 10.9327 14.6669 10.9327 14.5335V12.4002C10.9327 12.2669 10.7993 12.1335 10.666 12.1335H8.39935C8.26602 12.1335 8.13268 12.2669 8.13268 12.4002V14.5335C8.13268 14.6669 8.26602 14.8002 8.39935 14.8002ZM8.39935 11.7335H10.666C10.7993 11.7335 10.9327 11.6002 10.9327 11.4669V9.46688C10.9327 9.33354 10.7993 9.20021 10.666 9.20021H8.39935C8.26602 9.20021 8.13268 9.33354 8.13268 9.46688V11.6002C8.13268 11.6002 8.26602 11.7335 8.39935 11.7335ZM11.7327 14.8002H14.1327C14.266 14.8002 14.3993 14.6669 14.3993 14.5335V12.4002C14.3993 12.2669 14.266 12.1335 14.1327 12.1335H11.7327C11.5993 12.1335 11.466 12.2669 11.466 12.4002V14.5335C11.466 14.6669 11.5993 14.8002 11.7327 14.8002Z" fill="#426798"/>
</svg>
