<svg width="65" height="64" viewBox="0 0 65 64" fill="none" xmlns="http://www.w3.org/2000/svg">
<path d="M23.6056 23.112C21.248 23.112 18.987 22.1755 17.3199 20.5084C15.6529 18.8413 14.7163 16.5803 14.7163 14.2227C14.7163 11.8651 15.6529 9.60407 17.3199 7.937C18.987 6.26993 21.248 5.33337 23.6056 5.33337H32.4936V23.112M23.6056 23.112H32.4936M23.6056 23.112C21.2484 23.112 18.9877 24.0485 17.3209 25.7153C15.6541 27.3821 14.7176 29.6428 14.7176 32C14.7176 34.3573 15.6541 36.618 17.3209 38.2848C18.9877 39.9516 21.2484 40.888 23.6056 40.888H32.4936V23.112" stroke="#426798" stroke-width="4"/>
<path d="M50.2723 31.9999C50.2723 34.3575 49.3358 36.6186 47.6687 38.2856C46.0016 39.9527 43.7406 40.8893 41.383 40.8893C39.0254 40.8893 36.7644 39.9527 35.0973 38.2856C33.4302 36.6186 32.4937 34.3575 32.4937 31.9999C32.4937 29.6423 33.4302 27.3813 35.0973 25.7142C36.7644 24.0471 39.0254 23.1106 41.383 23.1106C43.7406 23.1106 46.0016 24.0471 47.6687 25.7142C49.3358 27.3813 50.2723 29.6423 50.2723 31.9999ZM23.6057 40.8906H32.4937V49.7786C32.4931 51.5364 31.9714 53.2545 30.9945 54.7158C30.0175 56.177 28.6292 57.3158 27.0051 57.9881C25.381 58.6604 23.594 58.8361 21.8701 58.4928C20.1461 58.1496 18.5627 57.3029 17.3199 56.0598C16.0772 54.8166 15.231 53.2329 14.8882 51.5089C14.5455 49.7849 14.7217 47.9979 15.3945 46.374C16.0673 44.7501 17.2065 43.3622 18.668 42.3856C20.1296 41.4091 21.8479 40.8906 23.6057 40.8906Z" stroke="#426798" stroke-width="4"/>
<path d="M32.4937 5.33325H41.3817C43.7393 5.33325 46.0003 6.2698 47.6674 7.93688C49.3344 9.60395 50.271 11.865 50.271 14.2226C50.271 16.5802 49.3344 18.8412 47.6674 20.5083C46.0003 22.1754 43.7393 23.1119 41.3817 23.1119H32.4937V5.33325Z" stroke="#426798" stroke-width="4"/>
</svg>
