<svg width="65" height="64" viewBox="0 0 65 64" fill="none" xmlns="http://www.w3.org/2000/svg">
<g clip-path="url(#clip0_144_560)">
<mask id="mask0_144_560" style="mask-type:luminance" maskUnits="userSpaceOnUse" x="0" y="0" width="65" height="64">
<path d="M0.5 0H64.5V64H0.5V0Z" fill="white"/>
</mask>
<g mask="url(#mask0_144_560)">
<path fill-rule="evenodd" clip-rule="evenodd" d="M32.5 0C14.82 0 0.5 14.32 0.5 32C0.5 46.16 9.66 58.12 22.38 62.36C23.98 62.64 24.58 61.68 24.58 60.84C24.58 60.08 24.54 57.56 24.54 54.88C16.5 56.36 14.42 52.92 13.78 51.12C13.42 50.2 11.86 47.36 10.5 46.6C9.38 46 7.78 44.52 10.46 44.48C12.98 44.44 14.78 46.8 15.38 47.76C18.26 52.6 22.86 51.24 24.7 50.4C24.98 48.32 25.82 46.92 26.74 46.12C19.62 45.32 12.18 42.56 12.18 30.32C12.18 26.84 13.42 23.96 15.46 21.72C15.14 20.92 14.02 17.64 15.78 13.24C15.78 13.24 18.46 12.4 24.58 16.52C27.14 15.8 29.86 15.44 32.58 15.44C35.3 15.44 38.02 15.8 40.58 16.52C46.7 12.36 49.38 13.24 49.38 13.24C51.14 17.64 50.02 20.92 49.7 21.72C51.74 23.96 52.98 26.8 52.98 30.32C52.98 42.6 45.5 45.32 38.38 46.12C39.54 47.12 40.54 49.04 40.54 52.04C40.54 56.32 40.5 59.76 40.5 60.84C40.5 61.68 41.1 62.68 42.7 62.36C49.0525 60.2153 54.5725 56.1325 58.4831 50.6863C62.3937 45.2401 64.4981 38.7048 64.5 32C64.5 14.32 50.18 0 32.5 0Z" fill="#426798"/>
</g>
</g>
<defs>
<clipPath id="clip0_144_560">
<rect width="64" height="64" fill="white" transform="translate(0.5)"/>
</clipPath>
</defs>
</svg>
