<svg width="65" height="64" viewBox="0 0 65 64" fill="none" xmlns="http://www.w3.org/2000/svg">
<mask id="mask0_144_543" style="mask-type:luminance" maskUnits="userSpaceOnUse" x="0" y="0" width="65" height="64">
<path d="M0.493591 0H64.4936V64H0.493591V0Z" fill="white"/>
</mask>
<g mask="url(#mask0_144_543)">
<path d="M14.0403 -0.000244141H16.9256V2.85042H19.5656V-0.000244141H22.4509V8.62909H19.5656V5.74109H16.9256V8.62909H14.0429L14.0403 -0.000244141ZM26.2429 2.86109H23.7043V-0.000244141H31.6696V2.86109H29.1283V8.62909H26.2429V2.86109ZM32.9336 -0.000244141H35.9416L37.7923 3.03176L39.6403 -0.000244141H42.6483V8.62909H39.7763V4.35176L37.7923 7.42109H37.7416L35.7549 4.35442V8.62909H32.9336V-0.000244141ZM44.083 -0.000244141H46.971V5.77842H51.0243V8.63176H44.083V-0.000244141Z" fill="#426798"/>
<path fill-rule="evenodd" clip-rule="evenodd" d="M13.9496 58.8584L8.49362 12.5784H56.4936L51.035 58.853L32.467 63.9997L13.9496 58.8584ZM24.9816 33.525L24.4643 27.7117H46.1843L46.691 22.037H18.2643L19.795 39.2024H39.467L38.8083 46.5624L32.4776 48.2744H32.4723L26.1523 46.5677L25.747 42.0424H20.0456L20.8403 50.9544L32.467 54.181L44.1123 50.9544L45.531 35.0504L45.6696 33.5277L24.9816 33.525Z" fill="#426798"/>
</g>
</svg>
