<svg width="64" height="64" viewBox="0 0 64 64" fill="none" xmlns="http://www.w3.org/2000/svg">
<path fill-rule="evenodd" clip-rule="evenodd" d="M0.143188 0.320068H63.5032V63.6801H0.143188V0.320068ZM48.5793 53.4369C45.6409 53.4369 43.9804 51.9057 42.7053 49.8201L37.8661 52.6317C39.6138 56.0848 43.1857 58.7195 48.7166 58.7195C54.3714 58.7195 58.5822 55.7838 58.5822 50.422C58.5822 45.4509 55.7258 43.2412 50.6675 41.0685L49.1786 40.4322C46.623 39.3234 45.5169 38.6027 45.5169 36.8154C45.5169 35.3713 46.6257 34.2652 48.3681 34.2652C50.0762 34.2652 51.177 34.9859 52.1987 36.8154L56.8346 33.8401C54.873 30.3897 52.1538 29.0723 48.3681 29.0723C43.0511 29.0723 39.6481 32.4726 39.6481 36.9395C39.6481 41.7839 42.4994 44.0781 46.7973 45.9076L48.2862 46.5465C51.0028 47.7345 52.6211 48.4578 52.6211 50.4986C52.6211 52.204 51.045 53.4369 48.5793 53.4369ZM25.5057 53.3973C23.4597 53.3973 22.6069 51.9981 21.6724 50.3349L16.8253 53.2705C18.2298 56.2432 20.9913 58.709 25.7565 58.709C31.0338 58.709 34.648 55.9026 34.648 49.7382V29.4102H28.6948V49.659C28.6948 52.6343 27.4593 53.3973 25.503 53.3973" fill="#426798"/>
</svg>
