<svg width="65" height="64" viewBox="0 0 65 64" fill="none" xmlns="http://www.w3.org/2000/svg">
<g clip-path="url(#clip0_144_599)">
<path d="M38.2729 9.2403C37.1098 7.40955 37.4818 6.2023 38.1237 4.95593C38.6983 3.84018 38.9331 1.90118 36.9027 0.375305C38.7721 -0.31282 41.7219 0.903805 41.7727 3.13218C40.6879 4.62468 37.7249 5.2178 38.2729 9.2403ZM51.6943 50.3796C50.7868 53.3213 51.2006 54.8866 47.2536 60.9946C54.2323 56.2833 57.5248 50.2008 58.6114 43.2974C59.2937 46.1761 59.3582 48.7872 59.0902 51.2544C64.8732 43.6411 68.8356 28.2884 55.5078 12.8557C54.9717 19.6773 48.3743 25.0486 40.7657 22.9424C53.8114 21.5043 54.6477 4.91555 43.4402 1.08505C43.6591 5.70005 37.3624 4.1888 39.2142 10.3628C32.8007 6.73418 18.7881 5.98843 13.2174 11.4936C10.3457 14.3316 8.38544 16.6787 4.79631 16.8338C1.83294 16.9618 -2.08031 21.7706 3.01119 24.2298C3.49744 26.2792 5.20644 27.4461 6.19744 27.6472C5.95081 31.2966 6.72719 29.4359 7.86469 27.8452C7.48244 32.4583 8.11244 30.7964 9.89519 28.4231C24.9789 25.3726 33.3089 37.6736 33.4032 45.2288C33.3369 43.8581 31.1456 42.2638 29.9859 42.7029C29.2024 44.3629 28.3487 45.7718 27.2951 46.4669C27.4052 45.3663 27.3301 44.2657 27.1301 43.1652C26.7826 44.4961 26.1284 45.8781 25.0829 47.3253C23.0032 47.4414 20.0926 45.8946 20.9392 43.3303C22.1336 40.8366 19.7909 40.3181 17.9037 41.0319C16.4856 41.5684 15.5272 43.0542 15.3962 43.5162C14.9231 45.1826 15.0787 48.9029 18.3144 51.3699C17.4662 51.5262 16.5953 51.6654 16.0032 52.0137C21.5073 55.3426 27.1254 54.2178 30.2539 52.9617C35.3762 50.9051 38.9091 45.2124 39.4618 40.8211C40.8836 46.9978 38.3364 53.8626 32.6271 57.5443C34.2583 57.7169 37.4512 56.6118 40.7162 55.4477C38.2479 58.5539 35.2976 61.4994 30.4644 63.8174C39.9842 63.0199 46.9473 58.2402 51.6944 50.3796" fill="#426798"/>
</g>
<defs>
<clipPath id="clip0_144_599">
<rect width="64" height="64" fill="white" transform="translate(0.506409)"/>
</clipPath>
</defs>
</svg>
