<svg width="65" height="64" viewBox="0 0 65 64" fill="none" xmlns="http://www.w3.org/2000/svg">
<g clip-path="url(#clip0_144_511)">
<mask id="mask0_144_511" style="mask-type:luminance" maskUnits="userSpaceOnUse" x="0" y="0" width="65" height="64">
<path d="M0.506409 0.00317383H64.5V63.9968H0.506409V0.00317383Z" fill="white"/>
</mask>
<g mask="url(#mask0_144_511)">
<path d="M30.4074 0.0195055C30.2688 0.0328375 29.8315 0.0781664 29.4369 0.107497C20.3498 0.928748 11.8386 5.83226 6.44182 13.3702C3.46158 17.5077 1.52423 22.3035 0.79438 27.3501C0.538406 29.1099 0.506409 29.6272 0.506409 32.011C0.506409 34.3947 0.538406 34.9147 0.79438 36.6719C2.53287 48.6893 11.0867 58.7843 22.6829 62.5253C24.76 63.1945 26.9491 63.6505 29.4369 63.9278C30.4074 64.0345 34.599 64.0345 35.5696 63.9278C39.8651 63.4505 43.5074 62.3866 47.0964 60.5548C47.6484 60.2748 47.755 60.1975 47.6804 60.1362C45.9248 57.821 44.1871 55.4923 42.4676 53.1502L37.3507 46.2362L30.9407 36.7465C28.8079 33.5724 26.6552 30.4118 24.4827 27.2648C24.4587 27.2568 24.4347 31.4724 24.4214 36.6239C24.4027 45.6363 24.3947 45.9989 24.2827 46.2122C24.1735 46.4612 23.9786 46.6627 23.7334 46.7802C23.5334 46.8815 23.3601 46.9002 22.4136 46.9002H21.331L21.043 46.7189C20.8648 46.6064 20.7202 46.4479 20.6244 46.2602L20.4911 45.9803L20.5044 33.4375L20.5231 20.8894L20.7177 20.6441C20.8488 20.4908 21.0058 20.3617 21.1817 20.2628C21.4377 20.1375 21.5363 20.1268 22.6215 20.1268C23.8961 20.1268 24.1094 20.1748 24.44 20.5375C24.5333 20.6388 28.005 25.8703 32.1592 32.1683L44.782 51.2917L49.8481 58.9656L50.1068 58.7976C52.5449 57.1767 54.7554 55.2371 56.6795 53.0302C60.7115 48.4155 63.3269 42.7357 64.212 36.6719C64.468 34.912 64.5 34.3947 64.5 32.011C64.5 29.6272 64.468 29.1099 64.212 27.3501C62.4736 15.3353 53.9197 5.23765 42.3236 1.49669C40.1563 0.807612 37.9246 0.340373 35.6629 0.102164C35.0603 0.0381703 30.9274 -0.0311561 30.4101 0.0221719M43.5101 19.3802C43.6588 19.4551 43.7912 19.5587 43.8997 19.685C44.0081 19.8113 44.0905 19.9579 44.1421 20.1162C44.19 20.2762 44.2034 23.7558 44.19 31.595L44.1714 42.8419L42.1902 39.8022L40.2011 36.7625V28.5873C40.2011 23.2999 40.2251 20.3295 40.2624 20.1855C40.3068 20.0189 40.3845 19.8631 40.4909 19.7275C40.5972 19.5918 40.7299 19.4791 40.881 19.3962C41.1397 19.2629 41.233 19.2523 42.2142 19.2523C43.1395 19.2523 43.3021 19.2656 43.5101 19.3776" fill="#426798"/>
</g>
</g>
<defs>
<clipPath id="clip0_144_511">
<rect width="63.9936" height="63.9936" fill="white" transform="translate(0.506409 0.00317383)"/>
</clipPath>
</defs>
</svg>
