<svg width="64" height="64" viewBox="0 0 64 64" fill="none" xmlns="http://www.w3.org/2000/svg">
<g clip-path="url(#clip0_144_533)">
<path d="M32.1832 63.9408C31.2696 63.9408 30.4201 63.703 29.6266 63.2916L21.5348 58.6486C20.3192 58.0021 20.9283 57.767 21.2943 57.6495C22.9346 57.1205 23.2391 57.003 24.9435 56.06C25.1252 55.9424 25.371 56.0012 25.5526 56.1187L31.7585 59.7065C31.9989 59.8241 32.3061 59.8241 32.4878 59.7065L56.7634 46.1248C57.0039 46.0072 57.1268 45.7721 57.1268 45.4783V18.3735C57.1268 18.0797 57.0065 17.8446 56.7634 17.727L32.4878 4.20671C32.2447 4.08917 31.9401 4.08917 31.7585 4.20671L7.48282 17.727C7.23971 17.8446 7.11683 18.1384 7.11683 18.3735V45.4783C7.11683 45.7134 7.23971 46.0072 7.48282 46.1248L14.1134 49.8301C17.7039 51.5933 19.9532 49.5362 19.9532 47.4792V20.7271C19.9532 20.3745 20.2578 20.0218 20.6852 20.0218H23.7868C24.1528 20.0218 24.5161 20.3157 24.5161 20.7271V47.4765C24.5161 52.1222 21.9007 54.8257 17.3379 54.8257C15.938 54.8257 14.8427 54.8257 11.7411 53.3564L5.35366 49.8301C4.58396 49.4068 3.9412 48.7858 3.49177 48.0311C3.04233 47.2764 2.8025 46.4154 2.79706 45.537V18.4323C2.79706 16.6691 3.76947 15.0235 5.35366 14.1419L29.6293 0.557481C30.4196 0.152182 31.2951 -0.0592041 32.1832 -0.0592041C33.0714 -0.0592041 33.9468 0.152182 34.7372 0.557481L59.0155 14.1392C60.597 15.0208 61.5694 16.6665 61.5694 18.4296V45.5344C61.5694 47.2975 60.597 48.9432 59.0155 49.8274L34.7398 63.4065C33.9329 63.7563 33.0627 63.9363 32.1832 63.9355M39.666 45.2966C29.0202 45.2966 26.8296 40.5948 26.8296 36.5956C26.8296 36.243 27.1342 35.8904 27.5589 35.8904H30.7219C31.0879 35.8904 31.3898 36.1254 31.3898 36.4781C31.8787 39.593 33.2785 41.1211 39.7275 41.1211C44.838 41.1211 47.0286 40.0044 47.0286 37.3597C47.0286 35.8316 46.4195 34.7149 38.4505 33.9509C31.8172 33.3017 27.6818 31.8938 27.6818 26.778C27.6818 22.0147 31.8172 19.191 38.7551 19.191C46.5424 19.191 50.3759 21.7796 50.8622 27.4245C50.8567 27.6156 50.7923 27.8003 50.6778 27.9534C50.5576 28.071 50.3759 28.1885 50.1916 28.1885H47.0286C46.8749 28.1848 46.7267 28.1312 46.6062 28.0357C46.4857 27.9403 46.3995 27.8083 46.3607 27.6596C45.6287 24.4271 43.7427 23.3665 38.7551 23.3665C33.1556 23.3665 32.4878 25.2472 32.4878 26.6604C32.4878 28.3648 33.2785 28.8938 40.8228 29.8341C48.3056 30.7745 51.8346 32.1263 51.8346 37.1807C51.7731 42.358 47.3946 45.2966 39.666 45.2966Z" fill="#426798"/>
</g>
<defs>
<clipPath id="clip0_144_533">
<rect width="63.36" height="63.36" fill="white" transform="translate(0.503174 0.319946)"/>
</clipPath>
</defs>
</svg>
