<svg width="65" height="64" viewBox="0 0 65 64" fill="none" xmlns="http://www.w3.org/2000/svg">
<path d="M34.0917 0.00705714C33.5151 -0.0308932 32.9392 0.0902296 32.4268 0.357212C31.9143 0.624195 31.485 1.02678 31.1857 1.52106L7.25072 40.5571C6.93892 41.0655 6.77588 41.6511 6.78013 42.2475C6.78437 42.8439 6.95571 43.4271 7.27472 43.9311L19.0587 62.5241C19.4327 63.1099 19.9874 63.5578 20.6389 63.7999C21.2903 64.0419 22.003 64.065 22.6687 63.8656L56.6747 53.6621C57.1115 53.5313 57.5151 53.3083 57.8582 53.0082C58.2014 52.708 58.4761 52.3377 58.6638 51.9222C58.8515 51.5067 58.9478 51.0558 58.9463 50.5999C58.9447 50.144 58.8453 49.6937 58.6547 49.2796L36.7947 1.85456C36.5569 1.32867 36.1791 0.878229 35.7027 0.55242C35.2263 0.226611 34.6696 0.0379578 34.0932 0.00705714H34.0917ZM34.9892 11.9821C35.2434 11.9518 35.5006 12.0055 35.7215 12.1348C35.9425 12.2641 36.1151 12.4621 36.2132 12.6986L51.2932 47.5906C51.3604 47.7456 51.3939 47.9132 51.3916 48.0821C51.3892 48.2511 51.3511 48.4177 51.2796 48.5708C51.2082 48.724 51.1051 48.8602 50.9771 48.9706C50.8491 49.0809 50.6992 49.1629 50.5372 49.2111L27.0392 56.2231C26.8418 56.2817 26.6325 56.2883 26.4317 56.2422C26.231 56.1962 26.0455 56.099 25.8934 55.9602C25.7413 55.8213 25.6276 55.6455 25.5634 55.4497C25.4993 55.254 25.4868 55.045 25.5272 54.8431L33.9422 12.9371C33.9891 12.6852 34.1171 12.4556 34.3065 12.2832C34.496 12.1108 34.7366 12.0051 34.9917 11.9821H34.9892Z" fill="#426798"/>
</svg>
