<svg width="65" height="64" viewBox="0 0 65 64" fill="none" xmlns="http://www.w3.org/2000/svg">
<g clip-path="url(#clip0_144_576)">
<mask id="mask0_144_576" style="mask-type:luminance" maskUnits="userSpaceOnUse" x="0" y="0" width="65" height="64">
<path d="M0.5 0.00317383H64.4936V63.9968H0.5V0.00317383Z" fill="white"/>
</mask>
<g mask="url(#mask0_144_576)">
<path d="M32.2675 0.00317383C16.0185 0.00317383 17.0317 7.08513 17.0317 7.08513L17.0504 14.4231H32.5528V16.6255H10.899C10.899 16.6255 0.5 15.439 0.5 31.9173C0.5 48.3957 9.57376 47.8091 9.57376 47.8091H14.9866V40.1645C14.9866 40.1645 14.6959 31.0454 23.919 31.0454H39.2935C39.2935 31.0454 47.9326 31.1841 47.9326 22.6516V8.54099C47.9326 8.54099 49.2445 0.00317383 32.2675 0.00317383ZM23.719 4.93602C25.2602 4.93602 26.5081 6.18922 26.5081 7.74107C26.5081 9.29025 25.2602 10.5435 23.719 10.5435C22.1752 10.5435 20.93 9.29025 20.93 7.74107C20.93 6.18922 22.1752 4.93602 23.719 4.93602Z" fill="#426798"/>
<path d="M32.7288 63.9967C48.9725 63.9967 47.9593 56.9148 47.9593 56.9148L47.9406 49.5768H32.4381V47.3744H54.0973C54.0973 47.3744 64.4963 48.5609 64.4963 32.0826C64.4963 15.6042 55.4199 16.1908 55.4199 16.1908H50.0071V23.8354C50.0071 23.8354 50.2977 32.9545 41.0746 32.9545H25.7028C25.7028 32.9545 17.0637 32.8158 17.0637 41.3483V55.4589C17.0637 55.4589 15.7518 63.9967 32.7288 63.9967ZM41.2773 59.0639C39.7334 59.0639 38.4882 57.8107 38.4882 56.2588C38.4882 54.7096 39.7334 53.4564 41.2773 53.4564C42.8184 53.4564 44.0663 54.7096 44.0663 56.2588C44.0663 57.8107 42.8184 59.0639 41.2773 59.0639Z" fill="#426798"/>
</g>
</g>
<defs>
<clipPath id="clip0_144_576">
<rect width="63.9936" height="63.9936" fill="white" transform="translate(0.5 0.00317383)"/>
</clipPath>
</defs>
</svg>
