<svg width="65" height="64" viewBox="0 0 65 64" fill="none" xmlns="http://www.w3.org/2000/svg">
<g clip-path="url(#clip0_144_518)">
<mask id="mask0_144_518" style="mask-type:luminance" maskUnits="userSpaceOnUse" x="0" y="0" width="65" height="64">
<path d="M0.856812 0H64.8568V64H0.856812V0Z" fill="white"/>
</mask>
<g mask="url(#mask0_144_518)">
<path d="M64.8568 31.1706C64.8568 26.9306 59.5475 22.912 51.4061 20.4213C53.2861 12.1253 52.4515 5.52263 48.7715 3.40796C47.8798 2.90855 46.8706 2.65716 45.8488 2.67996V5.58663C46.4488 5.58663 46.9315 5.70663 47.3368 5.92796C49.1101 6.94663 49.8808 10.8186 49.2808 15.8026C49.1368 17.0293 48.9021 18.32 48.6141 19.6373C45.8878 18.9803 43.1208 18.5055 40.3315 18.216C38.6698 15.9234 36.8568 13.7443 34.9048 11.6933C39.1581 7.74129 43.1501 5.57596 45.8648 5.57596V2.66663C42.2755 2.66663 37.5795 5.22396 32.8301 9.65863C28.0835 5.25329 23.3848 2.71996 19.7981 2.71996V5.62663C22.4995 5.62663 26.5048 7.78129 30.7581 11.7066C28.9315 13.6266 27.1048 15.8026 25.3688 18.216C22.5737 18.5023 19.8018 18.9817 17.0728 19.6506C16.7844 18.4021 16.5575 17.1401 16.3928 15.8693C15.7795 10.8826 16.5368 7.01063 18.2995 5.98129C18.6888 5.74663 19.1981 5.63996 19.7981 5.63996V2.73329C18.7048 2.73329 17.7101 2.96796 16.8515 3.46129C13.1848 5.57596 12.3635 12.1626 14.2541 20.4346C6.13948 22.9413 0.856812 26.944 0.856812 31.1706C0.856812 35.4106 6.16615 39.4293 14.3075 41.9173C12.4275 50.216 13.2621 56.8186 16.9421 58.9306C17.7901 59.4266 18.7821 59.6613 19.8755 59.6613C23.4648 59.6613 28.1608 57.104 32.9101 52.6693C37.6568 57.0773 42.3528 59.608 45.9421 59.608C46.9717 59.6297 47.9886 59.3776 48.8888 58.8773C52.5555 56.7653 53.3768 50.1786 51.4861 41.9066C59.5741 39.416 64.8568 35.3973 64.8568 31.1706ZM47.8701 22.4693C47.3634 24.2129 46.7761 25.9321 46.1101 27.6213C45.0199 25.5006 43.8228 23.4367 42.5235 21.4373C44.3768 21.712 46.1635 22.0506 47.8728 22.4693M41.8995 36.3626C40.9227 38.0679 39.8738 39.7307 38.7555 41.3466C34.8415 41.6916 30.9049 41.6961 26.9901 41.36C24.7447 38.1524 22.7809 34.7567 21.1208 31.2106C22.7784 27.6562 24.7338 24.2485 26.9661 21.024C30.8792 20.6783 34.8148 20.6729 38.7288 21.008C39.8115 22.56 40.8701 24.2186 41.8861 25.968C42.8781 27.6746 43.7795 29.408 44.6008 31.1573C43.7704 32.9278 42.8692 34.6644 41.8995 36.3626ZM46.1101 34.6666C46.8141 36.416 47.4168 38.1626 47.9101 39.8586C46.2035 40.2773 44.4008 40.6293 42.5368 40.9013C43.8308 38.8837 45.0234 36.8029 46.1101 34.6666ZM32.8835 48.5866C31.6701 47.3333 30.4568 45.9386 29.2568 44.4106C30.4301 44.464 31.6301 44.504 32.8435 44.504C34.0701 44.504 35.2835 44.4773 36.4701 44.4106C35.2968 45.9386 34.0835 47.3333 32.8835 48.5866ZM23.1768 40.9013C21.3788 40.6408 19.5938 40.2973 17.8275 39.872C18.3101 38.1893 18.9101 36.4533 19.5875 34.72C20.1235 35.76 20.6861 36.8053 21.2995 37.8506C21.9128 38.8933 22.5368 39.912 23.1768 40.9013ZM32.8168 13.7546C34.0301 15.008 35.2435 16.4026 36.4435 17.9306C35.2701 17.8773 34.0701 17.8373 32.8568 17.8373C31.6301 17.8373 30.4168 17.864 29.2301 17.9306C30.4035 16.4026 31.6168 15.008 32.8168 13.7546ZM23.1635 21.44C21.8698 23.4531 20.6772 25.5295 19.5901 27.6613C18.9054 25.9612 18.3047 24.2284 17.7901 22.4693C19.4968 22.064 21.2995 21.712 23.1635 21.44ZM11.3581 37.7706C6.73948 35.8026 3.75281 33.2186 3.75281 31.1706C3.75281 29.1226 6.73948 26.5253 11.3581 24.5706C12.4781 24.088 13.7048 23.656 14.9715 23.2533C15.7155 25.808 16.6941 28.4693 17.9048 31.1973C16.7618 33.7631 15.7951 36.4039 15.0115 39.1013C13.7727 38.7177 12.5534 38.2736 11.3581 37.7706ZM18.3768 56.4106C16.6035 55.3973 15.8328 51.52 16.4328 46.5386C16.5768 45.312 16.8115 44.0186 17.0995 42.7013C19.6541 43.328 22.4461 43.8106 25.3821 44.1253C27.0439 46.4178 28.8569 48.5969 30.8088 50.648C26.5555 54.6 22.5635 56.7653 19.8488 56.7653C19.3367 56.7709 18.831 56.65 18.3768 56.4133M49.3208 46.4746C49.9341 51.4586 49.1768 55.3333 47.4141 56.3626C47.0248 56.5973 46.5155 56.7013 45.9155 56.7013C43.2141 56.7013 39.2088 54.5493 34.9555 50.6213C36.8993 48.5788 38.7 46.4048 40.3448 44.1146C43.1399 43.8283 45.9119 43.3489 48.6408 42.68C48.9421 43.9973 49.1741 45.2613 49.3208 46.4746ZM54.3421 37.7733C53.2221 38.256 51.9955 38.688 50.7288 39.0906C49.9314 36.3795 48.9514 33.7254 47.7955 31.1466C48.9955 28.4346 49.9581 25.7866 50.6888 23.2426C51.9316 23.6275 53.1552 24.0715 54.3555 24.5733C58.9741 26.5413 61.9608 29.1253 61.9608 31.1733C61.9475 33.2213 58.9608 35.8186 54.3421 37.7733Z" fill="#426798"/>
<path d="M32.8435 37.1333C34.4249 37.1333 35.9415 36.5051 37.0597 35.3869C38.1779 34.2687 38.8061 32.7521 38.8061 31.1707C38.8061 29.5893 38.1779 28.0726 37.0597 26.9544C35.9415 25.8362 34.4249 25.208 32.8435 25.208C31.2621 25.208 29.7454 25.8362 28.6272 26.9544C27.509 28.0726 26.8808 29.5893 26.8808 31.1707C26.8808 32.7521 27.509 34.2687 28.6272 35.3869C29.7454 36.5051 31.2621 37.1333 32.8435 37.1333Z" fill="#426798"/>
</g>
</g>
<defs>
<clipPath id="clip0_144_518">
<rect width="64" height="64" fill="white" transform="translate(0.856812)"/>
</clipPath>
</defs>
</svg>
