<svg width="65" height="64" viewBox="0 0 65 64" fill="none" xmlns="http://www.w3.org/2000/svg">
<g clip-path="url(#clip0_144_553)">
<mask id="mask0_144_553" style="mask-type:luminance" maskUnits="userSpaceOnUse" x="0" y="0" width="65" height="64">
<path d="M0.86322 0.00317383H64.8568V63.9968H0.86322V0.00317383Z" fill="white"/>
</mask>
<g mask="url(#mask0_144_553)">
<path d="M32.86 0.00317383C50.4583 0.00317383 64.8568 14.4017 64.8568 32C64.8568 49.5982 50.4583 63.9968 32.86 63.9968C15.2618 63.9968 0.86322 49.5982 0.86322 32C0.86322 14.4017 15.2618 0.00317383 32.86 0.00317383ZM26.4607 42.5989C26.8606 44.3988 26.8606 45.9986 26.4607 47.3985L26.2607 47.9984C26.2607 48.1984 26.0607 48.3984 26.0607 48.3984C25.6607 49.1983 25.2608 49.7982 24.6608 50.5981C22.861 52.5979 20.2613 53.3979 19.0614 52.7979C17.8615 52.198 18.4615 49.1983 20.6612 46.9985C23.061 44.5987 26.2607 42.9989 26.2607 42.9989L26.4607 42.5989ZM52.858 13.6018C51.4582 8.00238 42.0591 6.00258 33.06 9.20226C27.8605 11.2021 22.0611 14.2018 17.8615 18.0014C12.862 22.6009 12.2621 26.6005 12.4621 28.2004C13.6619 33.9998 21.6611 37.9994 25.0608 40.7991C24.0609 41.1991 16.8616 44.7987 15.2618 48.5983C13.462 52.5979 15.4618 55.3977 16.8616 55.5976C21.0612 56.7975 25.4608 54.5977 27.6605 51.1981C29.8603 47.7984 29.6603 43.5988 28.6604 41.3991C30.2161 40.9186 31.8697 40.8497 33.46 41.1991C39.0594 41.799 40.2593 45.3987 39.8593 46.7985C39.4594 48.1984 38.4595 48.9983 38.0595 49.3983C37.6595 49.5982 37.4596 49.7982 37.6595 49.7982C37.6595 49.9982 37.8595 49.9982 38.2595 49.9982C38.6594 49.9982 41.2592 48.7983 41.2592 45.9986C41.4592 42.5989 38.0595 38.7993 32.2601 38.7993C29.8603 38.7993 28.2605 38.9993 27.2606 39.3993C27.2606 39.1993 27.0606 39.1993 27.0606 39.1993C23.461 35.3997 16.8616 32.5999 17.0616 27.4004C17.0616 25.6006 17.8615 20.6011 29.8603 14.6017C39.6593 9.60222 47.6586 11.0021 49.0584 14.0018C51.0582 18.2014 44.8588 26.2006 34.6598 27.4004C30.6602 27.8004 28.6604 26.4005 28.2605 25.8006C27.6605 25.2007 27.6605 25.2007 27.4606 25.2007C27.0606 25.4006 27.2606 25.8006 27.4606 26.2006C27.8605 27.0005 29.0604 28.4003 31.2602 29.2003C33.06 29.8002 37.6595 30.2002 43.259 28.0004C49.4584 25.6006 54.2579 19.0013 52.858 13.4018V13.6018Z" fill="#426798"/>
</g>
</g>
<defs>
<clipPath id="clip0_144_553">
<rect width="63.9936" height="63.9936" fill="white" transform="translate(0.86322 0.00317383)"/>
</clipPath>
</defs>
</svg>
