<svg width="65" height="64" viewBox="0 0 65 64" fill="none" xmlns="http://www.w3.org/2000/svg">
<g clip-path="url(#clip0_144_595)">
<path d="M59.0448 3.32205C58.1519 5.47169 57.0051 7.50681 55.6288 9.38405C49.6082 3.37336 41.4483 -0.00238178 32.9408 -0.00195308C15.3368 -0.00195308 0.856812 14.478 0.856812 32.082C0.857069 36.429 1.74079 40.7306 3.45431 44.7257C5.16784 48.7207 7.67542 52.3258 10.8248 55.322L12.0028 56.374C17.7883 61.2447 25.1061 63.9188 32.6688 63.926C49.4088 63.926 63.4708 50.822 64.6688 34.134C65.5448 25.956 63.1368 15.624 59.0428 3.33205L59.0448 3.32205ZM15.3768 55.51C15.1214 55.8276 14.7975 56.0834 14.4294 56.2583C14.0612 56.4332 13.6584 56.5227 13.2508 56.52C11.7308 56.52 10.5108 55.29 10.5008 53.78C10.5008 52.27 11.7508 51.03 13.2508 51.03C15.5528 51.04 16.8348 53.718 15.3768 55.51ZM58.9188 45.906C51.0028 56.448 34.0848 52.896 23.2528 53.406C23.2528 53.406 21.3248 53.52 19.3888 53.834C19.3888 53.834 20.1188 53.532 21.0548 53.168C28.6688 50.522 32.2628 50.012 36.8888 47.636C45.5968 43.208 54.2108 33.522 56.0028 23.448C52.6808 33.146 42.6268 41.468 33.4708 44.854C27.2008 47.166 15.8668 49.416 15.8668 49.416L15.4088 49.176C7.69081 45.426 7.46081 28.718 21.4808 23.322C27.6168 20.968 33.5008 22.26 40.1268 20.686C47.2108 18.998 55.4088 13.686 58.7408 6.75805C62.4708 17.842 66.9588 35.188 58.9188 45.906Z" fill="#426798"/>
</g>
<defs>
<clipPath id="clip0_144_595">
<rect width="64" height="64" fill="white" transform="translate(0.856812)"/>
</clipPath>
</defs>
</svg>
