<svg width="65" height="64" viewBox="0 0 65 64" fill="none" xmlns="http://www.w3.org/2000/svg">
<g clip-path="url(#clip0_145_611)">
<path d="M32.4936 10.6669C28.116 10.6669 24.3528 11.8487 21.4003 14.3789C18.4648 16.8962 16.5491 20.5527 15.4824 25.1138C15.3692 25.5969 15.4279 26.1043 15.6484 26.5488C15.8689 26.9932 16.2375 27.3469 16.6906 27.549C17.1438 27.7511 17.6532 27.7889 18.1312 27.6559C18.6092 27.5229 19.0259 27.2275 19.3096 26.8205C20.6579 24.8919 22.0061 23.7357 23.3032 23.1383C24.5576 22.5623 25.9101 22.4471 27.4632 22.861C29.0248 23.2791 30.2365 24.5079 32.1352 26.573L32.1992 26.6413C33.6328 28.1986 35.3779 30.0973 37.7672 31.5735C40.2504 33.1053 43.3352 34.1335 47.4269 34.1335C51.8045 34.1335 55.5677 32.9517 58.5203 30.4215C61.4557 27.9042 63.3757 24.2477 64.4381 19.6866C64.5514 19.2035 64.4927 18.6961 64.2721 18.2517C64.0516 17.8072 63.6831 17.4535 63.2299 17.2514C62.7768 17.0494 62.2674 17.0115 61.7894 17.1445C61.3114 17.2775 60.8947 17.5729 60.6109 17.9799C59.2627 19.9085 57.9144 21.0647 56.6173 21.6621C55.3629 22.2381 54.0104 22.3533 52.4573 21.9394C50.8957 21.5213 49.684 20.2925 47.7853 18.2274L47.7213 18.1591C46.2877 16.6018 44.5427 14.7031 42.1533 13.2269C39.6701 11.6951 36.5853 10.6669 32.4936 10.6669ZM17.5603 29.8669C13.1827 29.8669 9.41948 31.0487 6.46695 33.5789C3.53148 36.0962 1.61575 39.7527 0.549082 44.3138C0.435867 44.7969 0.494568 45.3043 0.715085 45.7488C0.935602 46.1932 1.30414 46.5469 1.75729 46.749C2.21043 46.9511 2.71984 46.9889 3.19785 46.8559C3.67586 46.7229 4.09257 46.4275 4.37628 46.0205C5.72455 44.0919 7.07281 42.9357 8.36988 42.3383C9.62428 41.7623 10.9768 41.6471 12.5299 42.061C14.0915 42.4791 15.3032 43.7079 17.2019 45.773L17.2659 45.8413C18.6995 47.3986 20.4445 49.2973 22.8339 50.7735C25.3171 52.3053 28.4019 53.3335 32.4936 53.3335C36.8712 53.3335 40.6344 52.1517 43.5869 49.6215C46.5224 47.1042 48.4424 43.4477 49.5048 38.8866C49.618 38.4035 49.5593 37.8961 49.3388 37.4517C49.1183 37.0072 48.7498 36.6535 48.2966 36.4514C47.8435 36.2494 47.3341 36.2115 46.856 36.3445C46.378 36.4775 45.9613 36.7729 45.6776 37.1799C44.3293 39.1085 42.9811 40.2647 41.684 40.8621C40.4296 41.4381 39.0771 41.5533 37.524 41.1394C35.9624 40.7213 34.7507 39.4925 32.852 37.4274L32.788 37.3591C31.3587 35.8018 29.6093 33.9031 27.22 32.4269C24.7368 30.8909 21.652 29.8669 17.5603 29.8669Z" fill="#426798"/>
</g>
<defs>
<clipPath id="clip0_145_611">
<rect width="64" height="64" fill="white" transform="translate(0.493591)"/>
</clipPath>
</defs>
</svg>
