<svg width="65" height="64" viewBox="0 0 65 64" fill="none" xmlns="http://www.w3.org/2000/svg">
<mask id="mask0_144_527" style="mask-type:luminance" maskUnits="userSpaceOnUse" x="0" y="0" width="65" height="64">
<path d="M0.86322 0H64.8632V64H0.86322V0Z" fill="white"/>
</mask>
<g mask="url(#mask0_144_527)">
<path d="M63.3406 2.33938e-06H2.38322C1.97985 0.000708775 1.59324 0.161444 1.30826 0.446923C1.02328 0.732402 0.863222 1.11929 0.863223 1.52267V62.48C0.862871 62.6801 0.902016 62.8782 0.978413 63.0631C1.05481 63.248 1.16696 63.416 1.30842 63.5575C1.44988 63.6989 1.61788 63.8111 1.80277 63.8875C1.98767 63.9639 2.18583 64.003 2.38589 64.0027H63.3432C63.5432 64.0027 63.7412 63.9633 63.9259 63.8868C64.1107 63.8102 64.2785 63.6981 64.4199 63.5567C64.5613 63.4153 64.6735 63.2474 64.75 63.0627C64.8265 62.878 64.8659 62.68 64.8659 62.48V1.52C64.8655 1.32004 64.8258 1.12211 64.749 0.937506C64.6721 0.752901 64.5597 0.58524 64.418 0.444095C64.2764 0.30295 64.1083 0.191085 63.9235 0.114887C63.7386 0.0386898 63.5405 -0.000348159 63.3406 2.33938e-06ZM38.9592 34.2027H31.3406V57.904H25.2446V34.2027H17.6259V28.952H38.9592V34.2027ZM40.6659 56.5493V50.216C40.6659 50.216 44.1272 52.824 48.2792 52.824C52.4312 52.824 52.2712 50.1093 52.2712 49.736C52.2712 45.7973 40.5059 45.7973 40.5059 37.0667C40.5059 25.1947 57.6499 29.88 57.6499 29.88L57.4366 35.5227C57.4366 35.5227 54.5619 33.6053 51.3139 33.6053C48.0659 33.6053 46.8952 35.152 46.8952 36.8C46.8952 41.0587 58.7672 40.6347 58.7672 49.2053C58.7672 62.4053 40.6659 56.552 40.6659 56.552" fill="#426798"/>
</g>
</svg>
