<svg width="65" height="64" viewBox="0 0 65 64" fill="none" xmlns="http://www.w3.org/2000/svg">
<g clip-path="url(#clip0_144_567)">
<mask id="mask0_144_567" style="mask-type:luminance" maskUnits="userSpaceOnUse" x="0" y="0" width="65" height="64">
<path d="M0.493591 0H64.4936V64H0.493591V0Z" fill="white"/>
</mask>
<g mask="url(#mask0_144_567)">
<path d="M1.10159 22.32C1.10159 22.32 -0.455741 21.1813 1.41359 19.6667L5.77359 15.7253C5.77359 15.7253 7.01893 14.4 8.33893 15.5547L48.5549 46.3333V61.0907C48.5549 61.0907 48.5363 63.4107 45.5949 63.1547L1.10159 22.32Z" fill="#426798"/>
<path d="M11.4696 31.832L1.10159 41.3574C1.10159 41.3574 0.0349252 42.1574 1.10159 43.5894L5.91492 48.016C5.91492 48.016 7.05893 49.256 8.74692 47.8427L19.7363 39.4214L11.4696 31.832ZM29.6669 31.9094L48.6803 17.2374L48.5549 2.55737C48.5549 2.55737 47.7416 -0.647959 45.0349 1.02137L19.7363 24.2934L29.6669 31.9094Z" fill="#426798"/>
<path d="M45.5923 63.1733C46.6963 64.3147 48.0349 63.9413 48.0349 63.9413L62.8509 56.5627C64.7469 55.256 64.4803 53.6347 64.4803 53.6347V9.56801C64.4803 7.63201 62.5203 6.96267 62.5203 6.96267L49.6776 0.704007C46.8723 -1.04799 45.0349 1.02134 45.0349 1.02134C45.0349 1.02134 47.3976 -0.698659 48.5549 2.55734V60.824C48.5549 61.224 48.4696 61.616 48.3016 61.9707C47.9629 62.6613 47.2296 63.304 45.4696 63.0373L45.5923 63.1733Z" fill="#426798"/>
</g>
</g>
<defs>
<clipPath id="clip0_144_567">
<rect width="64" height="64" fill="white" transform="translate(0.493591)"/>
</clipPath>
</defs>
</svg>
